# xmcd CD database file
#
# Track frame offsets:
#	150
#	20030
#	37182
#	51361
#	65433
#	82905
#	100065
#	126054
#	140316
#	162523
#	181690
#	199017
#	222217
#	240106
#	259196
#
# Disc length: 3819 seconds
#
# Revision: 1
# Processed by: cddbd v1.4PL0 Copyright (c) Steve Scherf et al.
# Submitted via: CDex 1.50beta10
#
DISCID=ca0ee90f
DTITLE=The Mavericks - Trampoline
DYEAR=1998
DGENRE=Country
TTITLE0=Dance The Night Away
TTITLE1=Tell Me Why
TTITLE2=I Should Know
TTITLE3=Someone Should Tell Her
TTITLE4=To Be With You
TTITLE5=I've Got This Feeling
TTITLE6=Fool # 1
TTITLE7=I Don't Even Know Your Name
TTITLE8=I Hope You Want Me Too
TTITLE9=Melbourne Mambo
TTITLE10=Dolores
TTITLE11=Save A Prayer
TTITLE12=Dream River
TTITLE13=All I Get
TTITLE14=La Mucara
EXTD=YEAR: 1998
EXTT0=
EXTT1=
EXTT2=
EXTT3=
EXTT4=
EXTT5=
EXTT6=
EXTT7=
EXTT8=
EXTT9=
EXTT10=
EXTT11=
EXTT12=
EXTT13=
EXTT14=
PLAYORDER=
